<svg width="45" height="47" viewBox="0 0 45 47" fill="none" xmlns="http://www.w3.org/2000/svg">
<path d="M31.8033 23.5638C31.6876 23.5504 31.5693 23.5495 31.4518 23.5495C28.4705 23.5495 25.4892 23.5495 22.5069 23.5495C19.5247 23.5495 16.5254 23.5495 13.5351 23.5504C13.3997 23.5504 13.2635 23.5558 13.1308 23.5746C12.5426 23.6571 12.1884 24.0516 12.2054 24.6479C12.2171 25.0711 12.2538 25.4961 12.3148 25.9148C13.0025 30.6536 17.0491 34.3944 21.856 34.6257C25.8406 34.8176 28.9735 33.1947 31.19 29.8744C32.231 28.3151 32.7331 26.5631 32.7959 24.69C32.8174 24.0364 32.4561 23.6419 31.8042 23.5647L31.8033 23.5638Z" fill="white"/>
<path d="M15.2072 20.4857C16.7637 20.492 18.0307 19.2439 18.0406 17.6963C18.0495 16.1514 16.7897 14.8808 15.2403 14.8701C13.7017 14.8602 12.4213 16.1343 12.4204 17.6765C12.4204 19.2116 13.6775 20.4794 15.2081 20.4857H15.2072Z" fill="white"/>
<path d="M29.7598 20.4857C31.311 20.4884 32.5771 19.2277 32.578 17.681C32.5789 16.137 31.3048 14.8619 29.7634 14.8673C28.2302 14.8718 26.9695 16.1289 26.9578 17.6631C26.9462 19.2044 28.2149 20.483 29.7598 20.4857Z" fill="white"/>
<path d="M44.2621 42.7878L41.9604 33.7999C43.8927 30.477 44.9982 26.6178 45 22.5094C45.0009 10.1761 35.0894 0.117585 22.7194 0.00102191C10.1243 -0.117335 -0.0615879 10.0604 0.000280353 22.6125C0.0612519 34.9539 10.014 44.8905 22.2935 44.9981C26.1284 45.0312 29.7356 44.1104 32.8962 42.4615L41.2135 45.536L43.9007 46.5295C44.5167 46.7573 45.1345 46.1996 44.9722 45.5638L44.2612 42.7878H44.2621ZM39.6497 41.7486L36.2802 40.2898L32.3376 38.5835C30.9443 39.4353 29.4316 40.1141 27.8293 40.5866C26.1149 41.0923 24.2984 41.364 22.4181 41.3631C12.0736 41.3604 3.62899 32.8647 3.63437 22.4655C3.63975 12.0707 12.1166 3.62704 22.5391 3.63421C32.9205 3.64138 41.3623 12.1102 41.3623 22.5193C41.3623 24.4775 41.0629 26.3659 40.5069 28.1403C39.9707 29.8529 39.1951 31.4606 38.2205 32.9248L39.5673 37.1605L40.7185 40.782C40.8817 41.4178 40.263 41.9755 39.6471 41.7477L39.6497 41.7486Z" fill="white"/>
</svg>
