<svg width="195" height="162" viewBox="0 0 195 162" fill="none" xmlns="http://www.w3.org/2000/svg">
<g clip-path="url(#clip0_3_17)">
<path d="M165.596 110.668C165.338 110.638 165.074 110.636 164.813 110.636C158.169 110.636 151.526 110.636 144.881 110.636C138.236 110.636 131.552 110.636 124.889 110.638C124.588 110.638 124.284 110.65 123.988 110.692C122.677 110.876 121.888 111.755 121.926 113.085C121.952 114.029 122.034 114.977 122.17 115.911C123.702 126.479 132.719 134.822 143.43 135.338C152.309 135.766 159.29 132.146 164.229 124.742C166.549 121.264 167.668 117.357 167.808 113.179C167.856 111.721 167.05 110.842 165.598 110.67L165.596 110.668Z" fill="white"/>
<path d="M128.613 103.801C132.082 103.815 134.905 101.031 134.927 97.5796C134.947 94.1341 132.14 91.3005 128.687 91.2765C125.259 91.2545 122.406 94.0961 122.404 97.5356C122.404 100.959 125.205 103.787 128.615 103.801H128.613Z" fill="white"/>
<path d="M161.042 103.803C164.499 103.809 167.32 100.997 167.322 97.5476C167.324 94.1041 164.485 91.2605 161.05 91.2725C157.634 91.2825 154.825 94.0861 154.799 97.5076C154.773 100.945 157.6 103.797 161.042 103.803Z" fill="white"/>
<path d="M193.356 153.541L188.227 133.496C192.533 126.085 194.996 117.479 195 108.316C195.004 80.812 172.918 58.3794 145.352 58.1194C117.289 57.8554 94.592 80.5541 94.7298 108.546C94.8657 136.07 117.043 158.231 144.405 158.471C152.951 158.545 160.989 156.491 168.031 152.813L186.565 159.67L192.552 161.886C193.925 162.394 195.302 161.15 194.94 159.732L193.356 153.541ZM183.078 151.224L175.57 147.97L166.785 144.165C163.68 146.064 160.309 147.578 156.739 148.632C152.919 149.76 148.871 150.366 144.681 150.364C121.631 150.358 102.814 131.411 102.826 108.218C102.838 85.0354 121.726 66.2042 144.951 66.2202C168.083 66.2362 186.894 85.1234 186.894 108.338C186.894 112.705 186.227 116.917 184.988 120.874C183.793 124.694 182.065 128.279 179.893 131.545L182.894 140.991L185.46 149.068C185.823 150.486 184.445 151.73 183.072 151.222L183.078 151.224Z" fill="white"/>
<path d="M48.9423 75.5388C60.4047 75.5388 69.6972 69.4137 73.6652 60.0651C74.4664 58.1794 74.0129 56.1417 72.5184 54.9099C71.0159 53.6721 68.8861 53.5761 67.2957 54.6839C66.5644 55.1938 66.0849 55.8897 65.7133 56.6996C63.3177 61.9348 59.3378 65.2943 53.7035 66.5142C45.6996 68.2459 37.8536 64.1365 34.5729 56.6016C33.8177 54.8659 32.529 53.866 30.6269 53.82C27.5061 53.7441 25.3802 56.8136 26.5351 59.7172C27.548 62.2668 28.9666 64.5825 30.7748 66.6421C35.9175 72.5013 42.4269 75.3968 48.9423 75.5388Z" fill="white"/>
<path d="M66.3047 35.0288C62.1329 35.0868 58.7603 38.8282 59.3078 42.8217C59.4456 43.8315 59.9052 44.1795 60.8762 43.9115C61.6674 43.6935 62.4446 43.4096 63.2098 43.1096C65.3117 42.2837 67.3996 42.2897 69.4994 43.1176C70.2647 43.4196 71.0419 43.6995 71.8351 43.9155C72.7761 44.1715 73.2237 43.8335 73.3755 42.8537C73.905 39.4182 71.2217 35.8007 67.6813 35.1908C67.2277 35.1128 66.7662 35.0808 66.3067 35.0288H66.3047Z" fill="white"/>
<path d="M0.0578319 101.617C-0.305799 103.035 1.0728 104.279 2.44541 103.771L8.43333 101.555L26.9665 94.698C34.0114 98.3754 42.0472 100.429 50.5925 100.355C77.9547 100.117 100.132 77.9545 100.268 50.4305C100.408 22.4367 77.711 -0.261956 49.6475 0.00200443C22.0815 0.261966 -0.00410519 22.6946 -0.000109244 50.1986C0.0038867 59.3612 2.46539 67.9679 6.77301 75.3788L1.64422 95.4239L0.0578319 101.617ZM9.53221 90.9545L12.0976 82.8777L15.0986 73.4311C12.9248 70.1676 11.1985 66.5821 10.0037 62.7607C8.76499 58.8013 8.09767 54.5919 8.09767 50.2246C8.09767 27.012 26.9086 8.1228 50.0411 8.1068C73.2675 8.09081 92.1563 26.922 92.1663 50.1046C92.1783 73.2971 73.3614 92.2443 50.3108 92.2503C46.1191 92.2503 42.0732 91.6464 38.2531 90.5186C34.6827 89.4647 31.3121 87.951 28.2072 86.0513L19.4222 89.8567L11.9138 93.1102C10.5412 93.6181 9.16459 92.3743 9.52622 90.9565L9.53221 90.9545Z" fill="white"/>
<path d="M33.9575 45.7792C30.501 45.7852 27.6799 42.9736 27.6779 39.5242C27.6759 36.0807 30.515 33.2371 33.9495 33.2491C37.3661 33.2591 40.1752 36.0627 40.2012 39.4842C40.2272 42.9217 37.4 45.7732 33.9575 45.7792Z" fill="white"/>
</g>
<defs>
<clipPath id="clip0_3_17">
<rect width="195" height="162" fill="white"/>
</clipPath>
</defs>
</svg>
